<?xml version="1.0" encoding="UTF-8" standalone="no"?>
<!-- Created with Inkscape (http://www.inkscape.org/) -->

<svg
   width="128"
   height="128"
   viewBox="0 0 33.866666 33.866666"
   version="1.1"
   id="svg10969"
   inkscape:version="1.2 (dc2aedaf03, 2022-05-15)"
   sodipodi:docname="favicon.svg"
   xmlns:inkscape="http://www.inkscape.org/namespaces/inkscape"
   xmlns:sodipodi="http://sodipodi.sourceforge.net/DTD/sodipodi-0.dtd"
   xmlns="http://www.w3.org/2000/svg"
   xmlns:svg="http://www.w3.org/2000/svg">
  <sodipodi:namedview
     id="namedview10971"
     pagecolor="#ffffff"
     bordercolor="#000000"
     borderopacity="0.25"
     inkscape:showpageshadow="2"
     inkscape:pageopacity="0.0"
     inkscape:pagecheckerboard="0"
     inkscape:deskcolor="#d1d1d1"
     inkscape:document-units="mm"
     showgrid="false"
     inkscape:zoom="3.3638608"
     inkscape:cx="48.902142"
     inkscape:cy="107.31716"
     inkscape:window-width="2160"
     inkscape:window-height="1406"
     inkscape:window-x="-11"
     inkscape:window-y="-11"
     inkscape:window-maximized="1"
     inkscape:current-layer="text16441" />
  <defs
     id="defs10966" />
  <g
     inkscape:label="Layer 1"
     inkscape:groupmode="layer"
     id="layer1">
    <circle
       style="fill:#d4443d;stroke-width:0.95906;fill-opacity:1"
       id="path12594"
       cx="16.933332"
       cy="16.933332"
       r="16.933332" />
    <g
       aria-label="j"
       id="text15554"
       style="font-size:35.2778px;font-family:'Photograph Signature';-inkscape-font-specification:'Photograph Signature';fill:#d4443d;stroke-width:13.22916667;stroke-dasharray:none">
      <g
         aria-label="j"
         id="text16441"
         style="font-size:35.2777px;fill:#ffffff;stroke-width:13.2292">
        <path
           d="m 21.415014,11.022216 c 0.106724,-0.197021 0.426899,-0.09851 0.747073,0.164183 0.2846,0.262695 0.462474,0.591062 0.355749,0.788083 0,0 -1.885471,3.34935 -4.162267,6.895723 3.877668,-0.361206 2.897103,-0.577074 9.442892,-0.05169 0.2846,0.03284 -0.311459,-0.143743 -0.133582,0.184625 0.177876,0.29553 0.419912,0.195931 0.135317,0.195931 -7.470736,-0.591062 -6.27845,0.492047 -10.298418,1.01744 -2.45467,3.710554 -5.12279,7.289763 -6.332339,7.289763 -1.6364459,-0.03284 -3.0594433,-0.853765 -3.7709421,-2.003051 -0.3913246,-0.656736 -0.5336236,-1.41198 -0.2846,-2.13439 0.2490247,-0.656735 0.7826493,-1.31347 1.7431727,-1.937369 1.4585714,-0.952266 3.9132424,-1.838859 7.6486104,-2.33141 2.561395,-3.97325 4.909342,-8.077846 4.909342,-8.077846 z m -10.992657,15.33477 c 0.960524,0 3.059446,-2.692614 5.158366,-5.844943 -2.703694,0.492551 -4.553592,1.21496 -5.7275638,2.003041 -0.889373,0.558225 -1.3874222,1.182124 -1.6008717,1.740349 -0.1778752,0.525389 -0.1067247,0.952267 0.071145,1.280635 0.3201741,0.459714 1.1028224,0.788082 2.0989205,0.820918 z M 23.761156,8.3211137 c -0.106725,0.1641834 -0.531297,0.3999602 -0.815897,0.137261 -0.320174,-0.2626935 0.07828,-1.4694359 0.185002,-1.6336193 l 0.844344,-1.4821478 c 0.106725,-0.1970204 1.317294,-0.1307719 0.393129,0.7540943 0.284598,0.2626935 0.747597,-0.1724802 0.650703,0.011367 z"
           id="path16443"
           style="stroke:#fcffff;stroke-width:1.93145833;stroke-dasharray:none;stroke-opacity:1"
           sodipodi:nodetypes="scccccccccccccsccccsscccccccc" />
      </g>
    </g>
  </g>
</svg>
