<svg width="130" height="35.238" version="1.1" viewBox="0 0 34.396 9.3234">
    <g transform="matrix(1.0251 0 0 1.0251 -45.298 -60.112)"
        style="shape-inside:url(#rect12);white-space:pre" aria-label="jeeb.uk">
        <path style="fill:#28334A"
            d="m45.403 59.26c0.1757 0 0.31006-0.13436 0.31006-0.31006 0-0.1757-0.13436-0.31006-0.31006-0.31006-0.18087 0-0.32039 0.13436-0.32039 0.31006 0 0.1757 0.13953 0.31006 0.32039 0.31006zm0.1912 1.2506h-0.38757v5.9014c0 0.69246-0.25838 0.97151-0.894 0.97151h-0.12402v0.34623c0.01034 0.0052 0.13436 0.0052 0.15503 0.0052 0.82682 0 1.2506-0.38757 1.2506-1.3436z" />
        <path style="fill:#28334A"
            d="m48.26 65.683c-0.7183 0-1.2816-0.44958-1.2816-1.1679 0-0.75447 0.52193-1.1369 1.4986-1.2661l1.4159-0.14469v0.95601c0 0.89917-0.7183 1.6226-1.633 1.6226zm-0.07235 0.34623c0.79065 0 1.4676-0.45992 1.7002-1.111h0.0155v1.0335h0.3824v-3.762c0-1.1162-0.64595-1.757-1.7053-1.757-1.0542 0-1.7467 0.60978-1.8242 1.6485h0.37724c0.10335-0.86299 0.63045-1.2919 1.4418-1.2919 0.81649 0 1.3177 0.50643 1.3177 1.4314v0.55294l-1.4779 0.14986c-1.2041 0.15503-1.8293 0.65112-1.8293 1.5968 0 0.92501 0.67696 1.5089 1.602 1.5089z" />
        <path style="fill:#28334A"
            d="m51.397 65.952h0.39274v-3.3848c0-1.0542 0.53743-1.7777 1.3643-1.7777 0.75447 0 1.2506 0.55294 1.2506 1.4779v3.6845h0.39274v-3.4778c0-0.98702 0.53227-1.6846 1.3643-1.6846 0.78548 0 1.2506 0.5426 1.2506 1.4831v3.6794h0.39274v-3.7517c0-1.1059-0.59944-1.7673-1.5451-1.7673-0.78548 0-1.3488 0.50643-1.5348 1.1524h-0.02584c-0.14986-0.66146-0.67696-1.1524-1.4469-1.1524-0.75447 0-1.2764 0.46509-1.4676 1.1265h-0.0155v-1.049h-0.37207z" />
        <path style="fill:#28334A"
            d="m60.75 60.79c0.98702 0 1.6175 0.85783 1.6226 2.1704h-3.2814c0.05168-1.3332 0.68729-2.1704 1.6588-2.1704zm1.571 3.638c-0.13953 0.7338-0.67696 1.2506-1.5244 1.2506-1.049 0-1.7105-0.84232-1.7105-2.3616v-0.02067h3.6794v-0.22738c0-1.633-0.77514-2.6355-2.0102-2.6355-1.2712 0-2.0619 1.0594-2.0619 2.806 0 1.8035 0.79065 2.7905 2.0981 2.7905 1.0594 0 1.7622-0.63562 1.9172-1.602z" />
        <path style="fill:#28334A"
            d="m63.567 61.87c0 0.7338 0.44958 1.1369 1.3488 1.3953l0.63045 0.18087c0.76481 0.22738 1.1059 0.53743 1.1059 1.1317 0 0.67179-0.57877 1.111-1.3798 1.111-0.82165 0-1.3953-0.49609-1.4728-1.2764h-0.38757c0.06718 0.97668 0.77514 1.6175 1.8552 1.6175 1.0284 0 1.7777-0.58911 1.7777-1.4779 0-0.76998-0.40308-1.1575-1.3643-1.4469l-0.62012-0.1757c-0.75447-0.22738-1.111-0.5271-1.111-1.08 0-0.63562 0.5426-1.0697 1.2764-1.0697 0.78031 0 1.2764 0.46509 1.3643 1.3022h0.37724c-0.07751-1.0542-0.7183-1.6485-1.7363-1.6485-0.96118 0-1.664 0.57361-1.664 1.4366z" />
        <path style="fill:#28334A"
            d="m68.269 65.999c0.18604 0 0.3359-0.14986 0.3359-0.3359 0-0.18604-0.14469-0.3359-0.3359-0.3359-0.18603 0-0.33073 0.14986-0.33073 0.3359 0 0.18603 0.14986 0.3359 0.33073 0.3359z" />
        <path style="fill:#28334A"
            d="m73.385 62.149c-0.13953-1.0129-0.85266-1.7157-1.8914-1.7157-1.2867 0-2.0826 1.0335-2.0826 2.8009 0 1.7777 0.79065 2.7957 2.0877 2.7957 1.018 0 1.7415-0.64078 1.881-1.6743h-0.38757c-0.13953 0.80098-0.69763 1.3177-1.4934 1.3177-1.0542 0-1.6898-0.91467-1.6898-2.4391 0-1.5193 0.63562-2.4443 1.6898-2.4443 0.80615 0 1.3591 0.5581 1.4986 1.3591z" />
        <path style="fill:#28334A"
            d="m75.757 63.508 1.54 2.4443h0.43925l-1.7518-2.7698 1.757-2.6717h-0.44442l-1.5296 2.3719h-0.01034l-1.5348-2.3719h-0.44958l1.757 2.682-1.7622 2.7595h0.43925l1.54-2.4443z" />
    </g>
</svg>