<?xml version="1.0" encoding="UTF-8"?>
<svg width="90" height="45" version="1.1" viewBox="0 0 23.812 11.906" xmlns="http://www.w3.org/2000/svg">
 <g fill="#252525" stroke-width=".26458">
  <g aria-label="jeeb">
   <path d="m5.8201 4.7044c0.042333-0.084667 0.16933-0.042333 0.29633 0.070555 0.11289 0.11289 0.18344 0.254 0.14111 0.33867 0 0-0.74789 1.4393-1.651 2.9633 1.5381-0.15522 3.556-0.16933 6.1524 0.056444 0.11289 0.014111 0.254 0.127 0.32456 0.26811 0.07056 0.127 0.05644 0.22578-0.05645 0.22578-2.9633-0.254-5.1647-0.19755-6.7592 0.028223-0.97367 1.5946-2.032 3.1327-2.5118 3.1327-0.64911-0.014111-1.2136-0.36689-1.4958-0.86078-0.15522-0.28222-0.21167-0.60678-0.11289-0.91722 0.098778-0.28222 0.31044-0.56444 0.69144-0.83255 0.57856-0.40922 1.5522-0.79022 3.0339-1.0019 1.016-1.7074 1.9473-3.4713 1.9473-3.4713zm-4.3603 6.5899c0.381 0 1.2136-1.1571 2.0461-2.5118-1.0724 0.21167-1.8062 0.52211-2.2719 0.86078-0.35278 0.23989-0.55033 0.508-0.635 0.74789-0.070556 0.22578-0.042333 0.40922 0.028222 0.55033 0.127 0.19756 0.43744 0.33867 0.83255 0.35278zm5.1506-7.4507c-0.042333 0.070556-0.18344 0.028222-0.29633-0.084667-0.127-0.11289-0.18344-0.26811-0.14111-0.33867l0.52211-0.90311c0.042333-0.084667 0.16933-0.042333 0.29633 0.070556 0.11289 0.11289 0.18344 0.26811 0.14111 0.33867z"/>
   <path d="m8.1766 5.2689c0.19756-0.056444 0.40922-0.14111 0.635-0.23989 0.29633-0.15522 0.55033-0.45156 0.70556-0.71967 0.028222-0.056444 0.042333-0.098778 0.070556-0.15522-0.15522 0.070556-0.33867 0.18344-0.55033 0.33867-0.28222 0.21167-0.60678 0.47978-0.86078 0.77611zm1.0019 0.22578c-0.66322 0.33867-1.4111 0.42333-1.4534 0.42333-0.95955 2.0602 2.8504 0.31044 3.2879-0.47978 0.04233-0.084667 0.18344-0.18344 0.31044-0.070556 0.11289 0.11289 0.11289 0.16933 0.07056 0.254-0.39512 0.69144-2.5964 2.2154-3.5701 1.6651-0.47978-0.26811-0.77611-0.83255-0.66322-1.3829 0.070556-0.35278 0.28222-0.71967 0.56444-1.0442 0.28222-0.31044 0.60678-0.60678 0.91722-0.83255 0.40922-0.28222 0.79022-0.45156 0.94544-0.42333 0.127 0.028222 0.23989 0.098778 0.33867 0.21167 0.14111 0.15522 0.19756 0.33867 0.16933 0.508-0.014111 0.127-0.070556 0.254-0.14111 0.39511-0.15522 0.29633-0.43744 0.60678-0.77611 0.77611z"/>
   <path d="m11.577 5.2689c0.19756-0.056444 0.40922-0.14111 0.635-0.23989 0.29633-0.15522 0.55033-0.45156 0.70556-0.71967 0.02822-0.056444 0.04233-0.098778 0.07056-0.15522-0.15522 0.070556-0.33867 0.18344-0.55033 0.33867-0.28222 0.21167-0.60678 0.47978-0.86078 0.77611zm1.0019 0.22578c-0.66322 0.33867-1.4111 0.42333-1.4534 0.42333-0.95956 2.0602 2.8504 0.31044 3.2879-0.47978 0.04233-0.084667 0.18344-0.18344 0.31044-0.070556 0.11289 0.11289 0.11289 0.16933 0.07055 0.254-0.39511 0.69144-2.5964 2.2154-3.5701 1.6651-0.47978-0.26811-0.77611-0.83255-0.66322-1.3829 0.07056-0.35278 0.28222-0.71967 0.56444-1.0442 0.28222-0.31044 0.60678-0.60678 0.91722-0.83255 0.40922-0.28222 0.79022-0.45156 0.94544-0.42333 0.127 0.028222 0.23989 0.098778 0.33867 0.21167 0.14111 0.15522 0.19756 0.33867 0.16933 0.508-0.01411 0.127-0.07055 0.254-0.14111 0.39511-0.15522 0.29633-0.43744 0.60678-0.77611 0.77611z"/>
   <path d="m17.518 0.16064c0.04233-0.070556 0.16933-0.028222 0.29633 0.084667 0.11289 0.11289 0.18344 0.26811 0.14111 0.33867l-3.1609 5.1082c0.57856-0.53622 1.1712-1.0301 1.6228-1.2277 0.254-0.11289 0.46567-0.098778 0.635 0.028222l0.01411 0.014111c0.21167 0.16933 0.31044 0.39511 0.31044 0.64911 0.01411 0.16933-0.02822 0.36689-0.08467 0.57856-0.22577 0.73378-0.80433 1.651-1.4252 1.7921-0.86078 0.21167-1.1994-0.26811-1.3406-0.73378-0.67733 0.67733-1.1853 1.27-1.1994 1.27-0.042333 0.056444-0.16933 0.014111-0.28222-0.098778-0.127-0.11289-0.18344-0.26811-0.14111-0.33867zm-0.71967 4.7696c-0.52211 0.23989-1.2418 0.86078-1.905 1.4958 0 0.15522 0.04233 0.762 0.635 0.62089 0.55033-0.14111 1.1007-1.0019 1.2982-1.6933 0.05645-0.16933 0.08467-0.33867 0.09878-0.47978-0.04233 0.014111-0.08467 0.042333-0.127 0.056444zm0.21167-0.084667s-0.01411 0-0.02822 0.014111c0.02822 0 0.04233 0.014111 0.02822 0z"/>
  </g>
  <g aria-label=".uk">
   <path d="m17.499 7.3693c0.11007 0 0.2032 0.084667 0.2032 0.2032 0 0.11007-0.09313 0.2032-0.2032 0.2032-0.11853 0-0.21167-0.093133-0.21167-0.2032 0-0.11853 0.09313-0.2032 0.21167-0.2032z"/>
   <path d="m18.845 5.9977c0.03387-0.033867 0.11853 0 0.18627 0.067733 0.06773 0.0762 0.09313 0.16087 0.06773 0.2032-0.64347 0.7366-0.69427 1.2446-0.635 1.2954 0.1016 0.084667 0.75353-0.3302 1.2107-1.1007l0.0254-0.033867c0.03387-0.033867 0.11853-0.00847 0.18627 0.067733 0.06773 0.067733 0.1016 0.16087 0.06773 0.19473 0 0-0.01693 0.0254-0.05927 0.059267-0.11007 0.13547-0.74507 1.0329-0.11007 0.72813 0.3302-0.16087 0.71967-0.47413 0.9398-0.762 0.03387-0.042333 0.06773-0.127 0.14393-0.0508 0.06773 0.067733 0.0254 0.11853-0.0085 0.1524-0.2286 0.29633-0.55033 0.69427-0.889 0.85513-0.29633 0.14393-0.66887 0.0762-0.71967-0.28787-0.8382 0.71967-1.524 0.5842-1.0583-0.44873 0.1524-0.33867 0.4318-0.70273 0.65193-0.9398z"/>
   <path d="m22.655 3.4407c0.03387-0.042333 0.11007-0.016933 0.18627 0.0508 0.06773 0.067733 0.1016 0.16087 0.0762 0.2032l-1.6171 2.5231c0.37253-0.32173 0.7874-0.6096 1.2192-0.77047 0.0508-0.016933 0.13547 0.033867 0.19473 0.11007 0.05927 0.0762 0.06773 0.16087 0.0254 0.1778-0.49107 0.18627-0.95673 0.5334-1.3716 0.90593-0.0254 0.11853-0.21167 0.9144 0.08467 1.0414 0.46567 0.2032 1.8119-0.94827 1.8203-0.94827 0.03387-0.033867 0.13547-0.14393 0.2032-0.067733 0.06773 0.0762 0.06773 0.11853 0.03387 0.1524-0.0085 0.00847-1.4055 1.3885-1.9897 1.1345-0.39793-0.1778-0.49107-0.6096-0.49107-0.98213-0.635 0.6604-1.0583 1.3123-1.0583 1.3208-0.0254 0.033867-0.11007 0.016933-0.1778-0.059267-0.0762-0.067733-0.11007-0.1524-0.08467-0.19473l0.01693-0.0254z"/>
  </g>
 </g>
</svg>
