<?xml version="1.0" encoding="UTF-8"?>
<svg width="200" height="200" version="1.1" viewBox="0 0 52.917 52.917" xmlns="http://www.w3.org/2000/svg">
 <g stroke-width=".26458">
  <circle cx="26.458" cy="26.458" r="26.458" fill="#d4443d"/>
  <g fill="#fff" aria-label="jeeb">
   <path d="m18.334 23.505c0.10054-0.20108 0.40217-0.10054 0.70379 0.16757 0.26811 0.26811 0.43568 0.60325 0.33514 0.80433 0 0-1.7762 3.4184-3.9211 7.0379 3.653-0.36865 8.4455-0.40217 14.612 0.13406 0.26811 0.03351 0.60325 0.30162 0.77082 0.63676 0.16757 0.30162 0.13406 0.53622-0.13406 0.53622-7.0379-0.60325-12.266-0.46919-16.053 0.067028-2.3125 3.7871-4.826 7.4401-5.9655 7.4401-1.5416-0.033514-2.8822-0.87136-3.5525-2.0443-0.36865-0.67028-0.50271-1.4411-0.26811-2.1784 0.2346-0.67028 0.73731-1.3406 1.6422-1.9773 1.3741-0.9719 3.6865-1.8768 7.2055-2.3795 2.413-4.0552 4.6249-8.2444 4.6249-8.2444zm-10.356 15.651c0.90488 0 2.8822-2.7481 4.8595-5.9655-2.5471 0.50271-4.2898 1.24-5.3957 2.0443-0.83785 0.56974-1.307 1.2065-1.5081 1.7762-0.16757 0.53622-0.10054 0.9719 0.067028 1.307 0.30163 0.4692 1.0389 0.80433 1.9773 0.83785zm12.233-17.695c-0.10054 0.16757-0.43568 0.06703-0.70379-0.20108-0.30162-0.26811-0.43568-0.63676-0.33514-0.80433l1.24-2.1449c0.10054-0.20108 0.40217-0.10054 0.70379 0.16757 0.26811 0.26811 0.43568 0.63676 0.33514 0.80433z"/>
   <path d="m23.931 24.846c0.46919-0.13406 0.9719-0.33514 1.5081-0.56974 0.70379-0.36865 1.307-1.0724 1.6757-1.7092 0.06703-0.13406 0.10054-0.2346 0.16757-0.36865-0.36865 0.16757-0.80433 0.43568-1.307 0.80433-0.67028 0.50271-1.4411 1.1395-2.0443 1.8433zm2.3795 0.53622c-1.5752 0.80433-3.3514 1.0054-3.4519 1.0054-2.2789 4.893 6.7698 0.73731 7.8087-1.1395 0.10054-0.20108 0.43568-0.43568 0.73731-0.16757 0.26811 0.26811 0.26811 0.40217 0.16757 0.60325-0.93839 1.6422-6.1666 5.2617-8.479 3.9546-1.1395-0.63676-1.8433-1.9773-1.5752-3.2844 0.16757-0.83785 0.67028-1.7092 1.3406-2.48 0.67028-0.73731 1.4411-1.4411 2.1784-1.9773 0.9719-0.67028 1.8768-1.0724 2.2454-1.0054 0.30162 0.06703 0.56974 0.2346 0.80433 0.50271 0.33514 0.36865 0.4692 0.80433 0.40217 1.2065-0.03351 0.30162-0.16757 0.60325-0.33514 0.93839-0.36865 0.70379-1.0389 1.4411-1.8433 1.8433z"/>
   <path d="m32.008 24.846c0.4692-0.13406 0.9719-0.33514 1.5081-0.56974 0.70379-0.36865 1.307-1.0724 1.6757-1.7092 0.06703-0.13406 0.10054-0.2346 0.16757-0.36865-0.36865 0.16757-0.80433 0.43568-1.307 0.80433-0.67028 0.50271-1.4411 1.1395-2.0443 1.8433zm2.3795 0.53622c-1.5752 0.80433-3.3514 1.0054-3.4519 1.0054-2.2789 4.893 6.7698 0.73731 7.8087-1.1395 0.10054-0.20108 0.43568-0.43568 0.73731-0.16757 0.26811 0.26811 0.26811 0.40217 0.16757 0.60325-0.93839 1.6422-6.1666 5.2617-8.479 3.9546-1.1395-0.63676-1.8433-1.9773-1.5752-3.2844 0.16757-0.83785 0.67028-1.7092 1.3406-2.48 0.67028-0.73731 1.4411-1.4411 2.1784-1.9773 0.9719-0.67028 1.8768-1.0724 2.2454-1.0054 0.30162 0.06703 0.56974 0.2346 0.80433 0.50271 0.33514 0.36865 0.46919 0.80433 0.40217 1.2065-0.03351 0.30162-0.16757 0.60325-0.33514 0.93839-0.36865 0.70379-1.0389 1.4411-1.8433 1.8433z"/>
   <path d="m46.117 12.714c0.10054-0.16757 0.40217-0.06703 0.70379 0.20108 0.26811 0.26811 0.43568 0.63676 0.33514 0.80433l-7.5071 12.132c1.3741-1.2735 2.7817-2.4465 3.8541-2.9157 0.60325-0.26811 1.106-0.2346 1.5081 0.06703l0.03351 0.03351c0.50271 0.40217 0.73731 0.93839 0.73731 1.5416 0.03351 0.40217-0.06703 0.87136-0.20108 1.3741-0.53622 1.7427-1.9103 3.9211-3.3849 4.2563-2.0443 0.50271-2.8487-0.63676-3.1838-1.7427-1.6087 1.6087-2.8152 3.0163-2.8487 3.0163-0.10054 0.13406-0.40217 0.03351-0.67028-0.2346-0.30162-0.26811-0.43568-0.63676-0.33514-0.80433zm-1.7092 11.328c-1.24 0.56974-2.9492 2.0443-4.5244 3.5525 0 0.36865 0.10054 1.8098 1.5081 1.4746 1.307-0.33514 2.6141-2.3795 3.0833-4.0217 0.13406-0.40217 0.20108-0.80433 0.2346-1.1395-0.10054 0.03351-0.20108 0.10054-0.30162 0.13406zm0.50271-0.20108s-0.03351 0-0.06703 0.03351c0.06703 0 0.10054 0.03351 0.06703 0z"/>
  </g>
  <g fill="#fff" aria-label=".uk">
   <path d="m32.962 41.543c0.25682 0 0.47413 0.19756 0.47413 0.47413 0 0.25682-0.21731 0.47414-0.47413 0.47414-0.27658 0-0.49389-0.21731-0.49389-0.47414 0-0.27658 0.21731-0.47413 0.49389-0.47413z"/>
   <path d="m36.103 38.343c0.07902-0.07902 0.27658 0 0.43462 0.15804 0.15804 0.1778 0.21731 0.37536 0.15804 0.47413-1.5014 1.7187-1.62 2.9041-1.4817 3.0226 0.23707 0.19756 1.7582-0.77047 2.8251-2.5682l0.05927-0.07902c0.07902-0.07902 0.27658-0.01976 0.43462 0.15804 0.15804 0.15804 0.23707 0.37536 0.15804 0.45438 0 0-0.03951 0.05927-0.13829 0.13829-0.25682 0.31609-1.7385 2.4102-0.25682 1.699 0.77047-0.37536 1.6792-1.1063 2.1929-1.778 0.07902-0.09878 0.15804-0.29633 0.33585-0.11853 0.15804 0.15804 0.05927 0.27658-0.01976 0.3556-0.5334 0.69145-1.2841 1.62-2.0743 1.9953-0.69145 0.33584-1.5607 0.1778-1.6792-0.67169-1.9558 1.6792-3.556 1.3631-2.4694-1.047 0.3556-0.79022 1.0075-1.6397 1.5212-2.1929z"/>
   <path d="m44.993 32.377c0.07902-0.09878 0.25682-0.03951 0.43462 0.11853 0.15804 0.15804 0.23707 0.37536 0.1778 0.47414l-3.7733 5.8872c0.86925-0.75071 1.8373-1.4224 2.8448-1.7978 0.11853-0.03951 0.31609 0.07902 0.45438 0.25682 0.13829 0.1778 0.15804 0.37536 0.05927 0.41487-1.1458 0.43462-2.2324 1.2446-3.2004 2.1138-0.05927 0.27658-0.49389 2.1336 0.19756 2.4299 1.0866 0.47414 4.2277-2.2126 4.2475-2.2126 0.07902-0.07902 0.31609-0.33584 0.47413-0.15804 0.15804 0.1778 0.15804 0.27658 0.07902 0.3556-0.01976 0.01976-3.2794 3.2399-4.6426 2.6472-0.92851-0.41487-1.1458-1.4224-1.1458-2.2916-1.4817 1.5409-2.4694 3.0621-2.4694 3.0819-0.05927 0.07902-0.25682 0.03951-0.41487-0.13829-0.1778-0.15804-0.25682-0.3556-0.19756-0.45438l0.03951-0.05927z"/>
  </g>
 </g>
</svg>
