<?xml version="1.0" encoding="UTF-8" standalone="no"?>
<!-- Created with Inkscape (http://www.inkscape.org/) -->

<svg
   width="200"
   height="200"
   viewBox="0 0 52.916665 52.916666"
   version="1.1"
   id="svg813"
   inkscape:version="1.2 (dc2aedaf03, 2022-05-15)"
   sodipodi:docname="logo-big.svg"
   xmlns:inkscape="http://www.inkscape.org/namespaces/inkscape"
   xmlns:sodipodi="http://sodipodi.sourceforge.net/DTD/sodipodi-0.dtd"
   xmlns="http://www.w3.org/2000/svg"
   xmlns:svg="http://www.w3.org/2000/svg">
  <sodipodi:namedview
     id="namedview815"
     pagecolor="#ffffff"
     bordercolor="#000000"
     borderopacity="0.25"
     inkscape:showpageshadow="2"
     inkscape:pageopacity="0.0"
     inkscape:pagecheckerboard="0"
     inkscape:deskcolor="#d1d1d1"
     inkscape:document-units="mm"
     showgrid="false"
     inkscape:zoom="1.1893044"
     inkscape:cx="67.686624"
     inkscape:cy="171.52884"
     inkscape:window-width="2160"
     inkscape:window-height="1406"
     inkscape:window-x="-11"
     inkscape:window-y="-11"
     inkscape:window-maximized="1"
     inkscape:current-layer="layer1" />
  <defs
     id="defs810" />
  <g
     inkscape:label="Layer 1"
     inkscape:groupmode="layer"
     id="layer1">
    <ellipse
       style="fill:#ffffff;stroke:#fcffff;stroke-width:1.93146"
       id="path3164"
       cx="30.439354"
       cy="26.663931"
       rx="7.4721923"
       ry="8.2587395" />
    <circle
       style="fill:#d4443d;fill-opacity:1;stroke:#fcffff;stroke-width:0;stroke-dasharray:none"
       id="path3168"
       cx="26.458334"
       cy="26.458334"
       r="26.458334" />
    <g
       aria-label="Jeeb"
       id="text7479"
       style="font-size:22.5778px;font-family:'Photograph Signature';-inkscape-font-specification:'Photograph Signature';fill:#d4443d;stroke:#fcffff;stroke-width:0">
      <path
         d="m 8.6100876,20.006562 c 1.0385788,0 1.8513794,-0.835379 1.8513794,-1.85138 0,-1.038579 -0.8128006,-1.873957 -1.8513794,-1.873957 -1.016001,0 -1.8739575,0.835378 -1.8739575,1.873957 0,1.016001 0.8579565,1.85138 1.8739575,1.85138 z m 0,0.880534 c -1.016001,0 -1.8739575,0.835379 -1.8739575,1.873957 v 8.466676 c 0,1.061156 -0.8128008,1.873957 -1.8288018,1.873957 h 0.090311 c -1.0385789,0 -1.8739575,0.835379 -1.8739575,1.873958 0,1.016001 0.8128008,1.828801 1.8288019,1.851379 3.0705809,-0.02258 5.5089831,-2.528713 5.5089831,-5.599294 v -8.466676 c 0,-1.038578 -0.8128006,-1.873957 -1.8513794,-1.873957 z"
         style="font-family:Mango;-inkscape-font-specification:Mango;fill:#ffffff"
         id="path7504" />
      <path
         d="m 18.499147,20.909674 c -1.557869,0 -3.138315,0.4064 -4.357516,1.625601 0,0 0,0 0,0 -2.190047,2.190047 -2.190047,5.779917 0,7.992542 0,0 0,0 0,0 1.354668,1.354668 3.18347,1.873957 4.899383,1.603024 1.106312,-0.203201 2.032002,-1.332091 1.625602,-2.528714 -0.270934,-0.745067 -0.92569,-1.196623 -1.693335,-1.241779 -0.203201,0 -0.745068,0.04516 -1.083735,0.02258 -0.383823,-0.04516 -0.767645,-0.248356 -1.083734,-0.541867 -0.72249,-0.699912 -0.72249,-1.919114 0,-2.664181 0.383822,-0.338667 0.857956,-0.519289 1.309512,-0.541867 h 3.838226 c 1.038579,0 1.828802,-0.812801 1.828802,-1.85138 0,-1.016001 -0.790223,-1.873957 -1.828802,-1.873957 z m -1.241779,5.621872 c 0,0.519289 0.4064,0.92569 0.925689,0.92569 0.51929,0 0.92569,-0.406401 0.92569,-0.92569 0,-0.496712 -0.4064,-0.948268 -0.92569,-0.948268 -0.519289,0 -0.925689,0.451556 -0.925689,0.948268 z"
         style="font-family:Mango;-inkscape-font-specification:Mango;fill:#ffffff"
         id="path7506" />
      <path
         d="m 31.368487,20.909674 c -1.557869,0 -3.138315,0.4064 -4.357516,1.625601 0,0 0,0 0,0 -2.190047,2.190047 -2.190047,5.779917 0,7.992542 0,0 0,0 0,0 1.354668,1.354668 3.18347,1.873957 4.899383,1.603024 1.106312,-0.203201 2.032002,-1.332091 1.625602,-2.528714 -0.270934,-0.745067 -0.92569,-1.196623 -1.693336,-1.241779 -0.2032,0 -0.745067,0.04516 -1.083734,0.02258 -0.383823,-0.04516 -0.767645,-0.248356 -1.083734,-0.541867 -0.72249,-0.699912 -0.72249,-1.919114 0,-2.664181 0.383822,-0.338667 0.857956,-0.519289 1.309512,-0.541867 h 3.838226 c 1.038579,0 1.828802,-0.812801 1.828802,-1.85138 0,-1.016001 -0.790223,-1.873957 -1.828802,-1.873957 z m -1.241779,5.621872 c 0,0.519289 0.4064,0.92569 0.925689,0.92569 0.51929,0 0.92569,-0.406401 0.92569,-0.92569 0,-0.496712 -0.4064,-0.948268 -0.92569,-0.948268 -0.519289,0 -0.925689,0.451556 -0.925689,0.948268 z"
         style="font-family:Mango;-inkscape-font-specification:Mango;fill:#ffffff"
         id="path7508" />
      <path
         d="m 50.198376,26.554124 c 0,-1.873958 -0.92569,-3.544715 -2.348092,-4.583294 -0.09031,-0.06773 -0.2032,-0.135466 -0.316089,-0.2032 l -0.04515,-0.04516 h -0.02258 c -0.92569,-0.451556 -2.05458,-0.04516 -2.506136,0.880534 -0.338667,0.699912 -0.2032,1.53529 0.293511,2.077157 0.180623,0.180623 0.180623,0.180623 0.474134,0.428979 0.406401,0.338667 0.72249,0.745067 0.72249,1.444979 0,1.038579 -0.857957,1.873957 -1.896535,1.873957 -0.31609,-0.02258 -0.72249,-0.04515 -1.174046,-0.428978 -0.428978,-0.338667 -0.699912,-0.857956 -0.699912,-1.444979 v -8.398942 c 0,-1.038579 -0.835379,-1.873957 -1.873957,-1.873957 -1.038579,0 -1.896536,0.835378 -1.896536,1.873957 v 8.398942 c 0.02258,0.496711 0.06773,0.970845 0.180623,1.422401 0.632178,2.415825 2.844803,4.222049 5.463828,4.222049 0,0 0,0 0,0 h 0.02258 c 3.093159,0 5.621873,-2.528714 5.621873,-5.64445 0,0 0,0 0,0 z"
         style="font-family:Mango;-inkscape-font-specification:Mango;fill:#ffffff"
         id="path7510" />
    </g>
    <g
       aria-label=".uk"
       id="text7635"
       style="font-size:11.2889px;font-family:Radicals;-inkscape-font-specification:Radicals;fill:#ffffff;stroke:#fcffff;stroke-width:0">
      <path
         d="m 33.073482,41.193623 c 0.508001,0 0.92569,-0.41769 0.92569,-0.92569 0,-0.51929 -0.417689,-0.936979 -0.92569,-0.936979 -0.519289,0 -0.92569,0.417689 -0.92569,0.936979 0,0.508 0.406401,0.92569 0.92569,0.92569 z"
         style="font-weight:900;font-family:Mango;-inkscape-font-specification:'Mango Heavy'"
         id="path7513" />
      <path
         d="m 37.950286,41.193623 c 0,0 0,0 0,0 1.557869,0 2.822225,-1.264357 2.822225,-2.822226 v -1.885246 c 0,-0.519289 -0.428978,-0.936979 -0.948267,-0.936979 -0.51929,0 -0.936979,0.41769 -0.936979,0.936979 v 1.885246 c 0,0.51929 -0.417689,0.936979 -0.936979,0.936979 -0.519289,0 -0.948267,-0.417689 -0.948267,-0.936979 v -1.885246 c 0,-0.519289 -0.41769,-0.936979 -0.936979,-0.936979 -0.519289,0 -0.936979,0.41769 -0.936979,0.936979 v 1.885246 c 0,1.557869 1.264357,2.822226 2.822225,2.822226 z"
         style="font-weight:900;font-family:Mango;-inkscape-font-specification:'Mango Heavy'"
         id="path7515" />
      <path
         d="m 47.263633,35.820106 c -0.361244,-0.361245 -0.948267,-0.361245 -1.320801,0 l -2.190047,2.190047 v -3.838226 c 0,-0.51929 -0.4064,-0.936979 -0.925689,-0.936979 -0.51929,0 -0.92569,0.417689 -0.92569,0.936979 v 6.084717 c 0,0.259645 0.03387,0.440267 0.270933,0.666045 0.180623,0.169333 0.41769,0.270934 0.654757,0.270934 0.237067,0 0.474133,-0.09031 0.654756,-0.270934 l 3.781781,-3.781782 c 0.361245,-0.361244 0.361245,-0.959556 0,-1.320801 z m -0.654756,3.510848 c -0.519289,0 -0.936978,0.417689 -0.936978,0.936979 0,0.508 0.417689,0.92569 0.936978,0.92569 0.508001,0 0.92569,-0.41769 0.92569,-0.92569 0,-0.51929 -0.417689,-0.936979 -0.92569,-0.936979 z"
         style="font-weight:900;font-family:Mango;-inkscape-font-specification:'Mango Heavy'"
         id="path7517" />
    </g>
  </g>
</svg>
