<?xml version="1.0" encoding="UTF-8" standalone="no"?>
<svg
   width="90"
   height="30"
   version="1.1"
   viewBox="0 0 23.812 7.9373333"
   id="svg11614"
   sodipodi:docname="logo-header.svg"
   inkscape:version="1.2 (dc2aedaf03, 2022-05-15)"
   xmlns:inkscape="http://www.inkscape.org/namespaces/inkscape"
   xmlns:sodipodi="http://sodipodi.sourceforge.net/DTD/sodipodi-0.dtd"
   xmlns="http://www.w3.org/2000/svg"
   xmlns:svg="http://www.w3.org/2000/svg">
  <defs
     id="defs11618" />
  <sodipodi:namedview
     id="namedview11616"
     pagecolor="#ffffff"
     bordercolor="#000000"
     borderopacity="0.25"
     inkscape:showpageshadow="2"
     inkscape:pageopacity="0.0"
     inkscape:pagecheckerboard="0"
     inkscape:deskcolor="#d1d1d1"
     showgrid="false"
     inkscape:zoom="7.4167645"
     inkscape:cx="76.650675"
     inkscape:cy="-5.528017"
     inkscape:window-width="2160"
     inkscape:window-height="1406"
     inkscape:window-x="-11"
     inkscape:window-y="-11"
     inkscape:window-maximized="1"
     inkscape:current-layer="g11602" />
  <g
     fill="#252525"
     stroke-width="0.26458"
     id="g11612">
    <g
       aria-label="jeeb"
       id="g11602">
      <g
         aria-label="jeeb"
         id="text14327"
         style="font-weight:900;font-size:8.46649px;font-family:Mango;-inkscape-font-specification:'Mango Heavy';fill:#ffffff;stroke:#fcffff;stroke-width:0">
        <path
           d="m 2.1434208,1.5081322 c 0.3894585,0 0.6942521,-0.3132602 0.6942521,-0.69425221 0,-0.38945853 -0.3047936,-0.70271865 -0.6942521,-0.70271865 -0.3809921,0 -0.7027187,0.31326012 -0.7027187,0.70271865 0,0.38099201 0.3217266,0.69425221 0.7027187,0.69425221 z m 0,0.3301931 c -0.3809921,0 -0.7027187,0.3132601 -0.7027187,0.7027186 v 3.1749337 c 0,0.397925 -0.3047936,0.7027186 -0.68578566,0.7027186 h 0.033866 c -0.38945853,0 -0.70271865,0.3132602 -0.70271865,0.7027187 0,0.380992 0.30479363,0.6857857 0.68578567,0.6942521 C 1.923292,7.8072006 2.8376729,6.8674202 2.8376729,5.7159776 V 2.5410439 c 0,-0.3894585 -0.3047936,-0.7027186 -0.6942521,-0.7027186 z"
           style="fill:#252525"
           id="path16622" />
        <path
           d="m 5.8517451,1.8467917 c -0.5841878,0 -1.1768421,0.1523969 -1.6340325,0.6095873 0,0 0,0 0,0 -0.8212495,0.8212495 -0.8212495,2.1674214 0,2.9971374 0,0 0,0 0,0 C 4.725702,5.9615058 5.4114877,6.156235 6.0549409,6.0546372 6.4697989,5.9784388 6.816925,5.5551143 6.6645281,5.1063903 6.5629303,4.8269962 6.3174021,4.6576664 6.0295414,4.6407334 c -0.076198,0 -0.2793942,0.016933 -0.4063915,0.00847 C 5.4792196,4.6322669 5.3352892,4.5560685 5.2167584,4.4460041 4.9458307,4.1835429 4.9458307,3.7263525 5.2167584,3.4469583 5.3606887,3.319961 5.538485,3.252229 5.7078148,3.2437626 h 1.4393033 c 0.3894585,0 0.6857856,-0.3047937 0.6857856,-0.6942522 0,-0.380992 -0.2963271,-0.7027187 -0.6857856,-0.7027187 z m -0.4656569,2.108156 c 0,0.1947293 0.1523968,0.3471261 0.3471261,0.3471261 0.1947292,0 0.347126,-0.1523968 0.347126,-0.3471261 0,-0.1862628 -0.1523968,-0.3555926 -0.347126,-0.3555926 -0.1947293,0 -0.3471261,0.1693298 -0.3471261,0.3555926 z"
           style="fill:#252525"
           id="path16624" />
        <path
           d="m 10.677642,1.8467917 c -0.584188,0 -1.1768425,0.1523969 -1.6340329,0.6095873 0,0 0,0 0,0 -0.8212495,0.8212495 -0.8212495,2.1674214 0,2.9971374 0,0 0,0 0,0 0.5079894,0.5079894 1.1937749,0.7027186 1.8372279,0.6011208 0.414858,-0.076198 0.761984,-0.4995229 0.609588,-0.9482469 -0.101598,-0.2793941 -0.347126,-0.4487239 -0.634987,-0.4656569 -0.0762,0 -0.279394,0.016933 -0.406392,0.00847 -0.14393,-0.016933 -0.28786,-0.093131 -0.406391,-0.2031958 -0.2709278,-0.2624612 -0.2709278,-0.7196516 0,-0.9990458 0.14393,-0.1269973 0.321727,-0.1947293 0.491056,-0.2031957 h 1.439304 c 0.389458,0 0.685785,-0.3047937 0.685785,-0.6942522 0,-0.380992 -0.296327,-0.7027187 -0.685785,-0.7027187 z m -0.465657,2.108156 c 0,0.1947293 0.152397,0.3471261 0.347126,0.3471261 0.194729,0 0.347126,-0.1523968 0.347126,-0.3471261 0,-0.1862628 -0.152397,-0.3555926 -0.347126,-0.3555926 -0.194729,0 -0.347126,0.1693298 -0.347126,0.3555926 z"
           style="fill:#252525"
           id="path16626" />
        <path
           d="m 17.738696,3.9634142 c 0,-0.7027187 -0.347126,-1.3292389 -0.880515,-1.7186974 -0.03387,-0.025399 -0.0762,-0.050799 -0.118531,-0.076198 l -0.01693,-0.016933 h -0.0085 C 16.367124,1.9822556 15.9438,2.1346524 15.77447,2.4817785 c -0.126997,0.2624612 -0.0762,0.5757213 0.110065,0.778917 0.06773,0.067732 0.06773,0.067732 0.177796,0.1608633 0.152397,0.1269974 0.270928,0.2793942 0.270928,0.5418554 0,0.3894585 -0.321727,0.7027186 -0.711186,0.7027186 -0.11853,-0.00847 -0.270927,-0.016933 -0.440257,-0.1608633 C 15.020953,4.3782722 14.919355,4.1835429 14.919355,3.9634142 V 0.81387999 c 0,-0.38945853 -0.31326,-0.70271865 -0.702719,-0.70271865 -0.389458,0 -0.711185,0.31326012 -0.711185,0.70271865 V 3.9634142 c 0.0085,0.1862628 0.0254,0.3640591 0.06773,0.5333888 0.237062,0.9059145 1.066778,1.5832336 2.04889,1.5832336 0,0 0,0 0,0 h 0.0085 c 1.159909,0 2.108156,-0.9482468 2.108156,-2.1166224 0,0 0,0 0,0 z"
           style="fill:#252525"
           id="path16628" />
      </g>
      <g
         aria-label=".uk"
         id="text15885"
         style="font-weight:900;font-size:4.23324px;font-family:Mango;-inkscape-font-specification:'Mango Heavy';stroke:#fcffff;stroke-width:0">
        <path
           d="m 17.889898,6.1357446 c 0.190496,0 0.347125,-0.1566299 0.347125,-0.3471257 0,-0.1947291 -0.156629,-0.3513589 -0.347125,-0.3513589 -0.194729,0 -0.347126,0.1566298 -0.347126,0.3513589 0,0.1904958 0.152397,0.3471257 0.347126,0.3471257 z"
           id="path16631" />
        <path
           d="m 19.718657,6.1357446 c 0,0 0,0 0,0 0.584187,0 1.05831,-0.4741229 1.05831,-1.0583101 V 4.3704834 c 0,-0.194729 -0.160863,-0.3513589 -0.355592,-0.3513589 -0.194729,0 -0.351359,0.1566299 -0.351359,0.3513589 v 0.7069511 c 0,0.1947291 -0.15663,0.351359 -0.351359,0.351359 -0.194729,0 -0.355592,-0.1566299 -0.355592,-0.351359 V 4.3704834 c 0,-0.194729 -0.15663,-0.3513589 -0.351359,-0.3513589 -0.194729,0 -0.351359,0.1566299 -0.351359,0.3513589 v 0.7069511 c 0,0.5841872 0.474123,1.0583101 1.05831,1.0583101 z"
           id="path16633" />
        <path
           d="m 23.211082,4.1207223 c -0.135464,-0.1354637 -0.355592,-0.1354637 -0.495289,0 L 21.894544,4.9419709 V 3.5026692 c 0,-0.194729 -0.152396,-0.3513589 -0.347126,-0.3513589 -0.194729,0 -0.347125,0.1566299 -0.347125,0.3513589 v 2.2817164 c 0,0.097365 0.0127,0.1650964 0.101598,0.2497612 0.06773,0.063499 0.156629,0.1015978 0.245527,0.1015978 0.0889,0 0.177797,-0.033866 0.245528,-0.1015978 l 1.418136,-1.4181354 c 0.135464,-0.1354637 0.135464,-0.3598254 0,-0.4952891 z M 22.965554,5.43726 c -0.194729,0 -0.351359,0.1566298 -0.351359,0.3513589 0,0.1904958 0.15663,0.3471257 0.351359,0.3471257 0.190496,0 0.347126,-0.1566299 0.347126,-0.3471257 0,-0.1947291 -0.15663,-0.3513589 -0.347126,-0.3513589 z"
           id="path16635" />
      </g>
    </g>
  </g>
</svg>
