<?xml version="1.0" encoding="UTF-8" standalone="no"?>
<svg
   xmlns:dc="http://purl.org/dc/elements/1.1/"
   xmlns:cc="http://creativecommons.org/ns#"
   xmlns:rdf="http://www.w3.org/1999/02/22-rdf-syntax-ns#"
   xmlns:svg="http://www.w3.org/2000/svg"
   xmlns="http://www.w3.org/2000/svg"
   xmlns:sodipodi="http://sodipodi.sourceforge.net/DTD/sodipodi-0.dtd"
   xmlns:inkscape="http://www.inkscape.org/namespaces/inkscape"
   width="130"
   height="35.237999"
   viewBox="0 0 34.395833 9.3233875"
   version="1.1"
   id="svg8"
   inkscape:version="1.0.1 (c497b03c, 2020-09-10)"
   sodipodi:docname="jx0.svg">
  <defs
     id="defs2">
    <rect
       x="44.601189"
       y="55.940475"
       width="69.547623"
       height="55.184525"
       id="rect12" />
  </defs>
  <sodipodi:namedview
     id="base"
     pagecolor="#ffffff"
     bordercolor="#666666"
     borderopacity="1.0"
     inkscape:pageopacity="0.0"
     inkscape:pageshadow="2"
     inkscape:zoom="1.4427657"
     inkscape:cx="177.97266"
     inkscape:cy="212.92965"
     inkscape:document-units="px"
     inkscape:current-layer="layer1"
     inkscape:document-rotation="0"
     showgrid="false"
     inkscape:window-width="1440"
     inkscape:window-height="855"
     inkscape:window-x="0"
     inkscape:window-y="23"
     inkscape:window-maximized="1"
     units="px" />
  <metadata
     id="metadata5">
    <rdf:RDF>
      <cc:Work
         rdf:about="">
        <dc:format>image/svg+xml</dc:format>
        <dc:type
           rdf:resource="http://purl.org/dc/dcmitype/StillImage" />
        <dc:title></dc:title>
      </cc:Work>
    </rdf:RDF>
  </metadata>
  <g
     inkscape:label="Layer 1"
     inkscape:groupmode="layer"
     id="layer1">
    <g
       aria-label="jeeb.uk"
       id="text10"
       style="font-style:normal;font-weight:normal;font-size:10.5833px;line-height:1.25;font-family:sans-serif;white-space:pre;shape-inside:url(#rect12);fill:#000000;fill-opacity:1;stroke:none"
       transform="matrix(1.0251072,0,0,1.0251072,-45.297593,-60.112194)">
      <path
         d="m 45.402545,59.260025 c 0.175699,0 0.310057,-0.134358 0.310057,-0.310057 0,-0.1757 -0.134358,-0.310058 -0.310057,-0.310058 -0.180867,0 -0.320393,0.134358 -0.320393,0.310058 0,0.175699 0.139526,0.310057 0.320393,0.310057 z m 0.191202,1.250566 h -0.387572 v 5.90143 c 0,0.692462 -0.258382,0.971514 -0.894,0.971514 h -0.124023 v 0.346231 c 0.01034,0.0052 0.134359,0.0052 0.155029,0.0052 0.82682,0 1.250566,-0.387572 1.250566,-1.343583 z"
         style="font-style:normal;font-variant:normal;font-weight:normal;font-stretch:normal;font-family:'.SF NS Display Condensed';-inkscape-font-specification:'.SF NS Display Condensed, '"
         id="path72" />
      <path
         d="m 48.260242,65.683385 c -0.7183,0 -1.281571,-0.449583 -1.281571,-1.167883 0,-0.754474 0.52193,-1.136878 1.498612,-1.266069 l 1.415929,-0.144693 v 0.956011 c 0,0.899167 -0.7183,1.622634 -1.63297,1.622634 z m -0.07235,0.346231 c 0.790647,0 1.467606,-0.459918 1.70015,-1.111039 h 0.0155 v 1.033525 h 0.382404 V 62.19007 c 0,-1.116208 -0.645953,-1.756993 -1.705317,-1.756993 -1.054196,0 -1.746658,0.60978 -1.824172,1.648473 H 47.1337 c 0.103352,-0.862994 0.63045,-1.291907 1.441767,-1.291907 0.816486,0 1.317745,0.506427 1.317745,1.431432 v 0.552937 l -1.477941,0.149861 c -1.204057,0.155029 -1.82934,0.651121 -1.82934,1.596796 0,0.925006 0.676959,1.508947 1.601964,1.508947 z"
         style="font-style:normal;font-variant:normal;font-weight:normal;font-stretch:normal;font-family:'.SF NS Display Condensed';-inkscape-font-specification:'.SF NS Display Condensed, '"
         id="path74" />
      <path
         d="m 51.396992,65.952102 h 0.392739 v -3.384796 c 0,-1.054195 0.537434,-1.777663 1.364254,-1.777663 0.754473,0 1.250566,0.552936 1.250566,1.477941 v 3.684518 h 0.392739 v -3.477813 c 0,-0.987017 0.532266,-1.684646 1.364254,-1.684646 0.785479,0 1.250565,0.542601 1.250565,1.483109 v 3.67935 h 0.39274 v -3.751697 c 0,-1.105872 -0.599445,-1.767328 -1.54512,-1.767328 -0.78548,0 -1.348751,0.506427 -1.534786,1.15238 h -0.02584 c -0.149861,-0.661456 -0.676959,-1.15238 -1.446935,-1.15238 -0.754474,0 -1.276404,0.465086 -1.467606,1.126542 h -0.0155 v -1.049028 h -0.372069 z"
         style="font-style:normal;font-variant:normal;font-weight:normal;font-stretch:normal;font-family:'.SF NS Display Condensed';-inkscape-font-specification:'.SF NS Display Condensed, '"
         id="path76" />
      <path
         d="m 60.750397,60.789643 c 0.987016,0 1.617467,0.857826 1.622635,2.170403 h -3.281443 c 0.05168,-1.333248 0.687294,-2.170403 1.658808,-2.170403 z m 1.570958,3.638009 c -0.139526,0.733803 -0.676959,1.250566 -1.52445,1.250566 -1.049028,0 -1.710484,-0.842323 -1.710484,-2.361606 v -0.02067 h 3.67935 v -0.227376 c 0,-1.63297 -0.775144,-2.635489 -2.010207,-2.635489 -1.271236,0 -2.061883,1.059363 -2.061883,2.806021 0,1.803502 0.790647,2.790518 2.098057,2.790518 1.059363,0 1.76216,-0.635618 1.917189,-1.601964 z"
         style="font-style:normal;font-variant:normal;font-weight:normal;font-stretch:normal;font-family:'.SF NS Display Condensed';-inkscape-font-specification:'.SF NS Display Condensed, '"
         id="path78" />
      <path
         d="m 63.566752,61.869677 c 0,0.733803 0.449583,1.136878 1.34875,1.395259 l 0.630451,0.180867 c 0.764809,0.227376 1.105872,0.537433 1.105872,1.13171 0,0.671792 -0.578774,1.11104 -1.379756,1.11104 -0.821653,0 -1.395259,-0.496092 -1.472774,-1.276404 h -0.387572 c 0.06718,0.976682 0.775144,1.617467 1.855178,1.617467 1.028358,0 1.777664,-0.589109 1.777664,-1.477941 0,-0.769976 -0.403075,-1.157548 -1.364254,-1.446935 l -0.620115,-0.1757 c -0.754473,-0.227375 -1.11104,-0.527098 -1.11104,-1.080034 0,-0.635618 0.542601,-1.069698 1.276404,-1.069698 0.780312,0 1.276404,0.465086 1.364254,1.302242 h 0.377236 c -0.07751,-1.054196 -0.7183,-1.648473 -1.736322,-1.648473 -0.961179,0 -1.663976,0.573606 -1.663976,1.4366 z"
         style="font-style:normal;font-variant:normal;font-weight:normal;font-stretch:normal;font-family:'.SF NS Display Condensed';-inkscape-font-specification:'.SF NS Display Condensed, '"
         id="path80" />
      <path
         d="m 68.269292,65.998611 c 0.186035,0 0.335896,-0.149862 0.335896,-0.335896 0,-0.186035 -0.144693,-0.335896 -0.335896,-0.335896 -0.186034,0 -0.330728,0.149861 -0.330728,0.335896 0,0.186034 0.149861,0.335896 0.330728,0.335896 z"
         style="font-style:normal;font-variant:normal;font-weight:normal;font-stretch:normal;font-family:'.SF NS Display Condensed';-inkscape-font-specification:'.SF NS Display Condensed, '"
         id="path82" />
      <path
         d="m 73.385244,62.148729 c -0.139526,-1.012855 -0.852658,-1.715652 -1.891351,-1.715652 -1.286739,0 -2.082554,1.033525 -2.082554,2.800853 0,1.777664 0.790647,2.795686 2.087721,2.795686 1.018023,0 1.74149,-0.640785 1.881016,-1.674311 h -0.387572 c -0.139526,0.800982 -0.697629,1.317745 -1.493444,1.317745 -1.054196,0 -1.689814,-0.91467 -1.689814,-2.43912 0,-1.519282 0.635618,-2.444287 1.689814,-2.444287 0.80615,0 1.359086,0.558104 1.498612,1.359086 z"
         style="font-style:normal;font-variant:normal;font-weight:normal;font-stretch:normal;font-family:'.SF NS Display Condensed';-inkscape-font-specification:'.SF NS Display Condensed, '"
         id="path84" />
      <path
         d="m 75.757185,63.507815 1.539953,2.444287 h 0.439248 l -1.751825,-2.769848 1.756993,-2.671663 h -0.444416 l -1.529617,2.371941 h -0.01034 L 74.2224,60.510591 h -0.449583 l 1.756993,2.681998 -1.762161,2.759513 h 0.439248 l 1.539953,-2.444287 z"
         style="font-style:normal;font-variant:normal;font-weight:normal;font-stretch:normal;font-family:'.SF NS Display Condensed';-inkscape-font-specification:'.SF NS Display Condensed, '"
         id="path86" />
    </g>
  </g>
</svg>
